<svg xmlns="http://www.w3.org/2000/svg" width="117.034" height="32.556" viewBox="0 0 117.034 32.556">
  <path  d="M16.495-16.621,14.164,0H11.021l.307-1.915-.072-.09A6.235,6.235,0,0,1,6.775.325,4.873,4.873,0,0,1,2.9-1.6,7.041,7.041,0,0,1,1.3-6.251a10.764,10.764,0,0,1,2.972-7.8q2.972-3.071,8.3-3.071A14.123,14.123,0,0,1,16.495-16.621ZM11.689-4.806,13.062-14.4q-.506-.036-.976-.036A6.867,6.867,0,0,0,6.45-12.077,8.1,8.1,0,0,0,4.517-6.811a5.421,5.421,0,0,0,.93,3.279A2.814,2.814,0,0,0,7.8-2.258,4.05,4.05,0,0,0,10.3-3.387Q11.653-4.517,11.689-4.806Zm12.52-11.815-.488,3.162.072.072a14.4,14.4,0,0,1,2.349-2.8,3.218,3.218,0,0,1,2.06-.687,3.663,3.663,0,0,1,1.373.253v3.559a3.929,3.929,0,0,0-1.933-.56A2.992,2.992,0,0,0,26-13.161a7.239,7.239,0,0,0-1.752,1.969,7.455,7.455,0,0,0-1.066,1.834L21.878,0H18.735l2.331-16.621Zm9-5.2a1.759,1.759,0,0,1,.533-1.292,1.738,1.738,0,0,1,1.274-.533,1.738,1.738,0,0,1,1.274.533,1.759,1.759,0,0,1,.533,1.292,1.738,1.738,0,0,1-.533,1.274,1.738,1.738,0,0,1-1.274.533,1.738,1.738,0,0,1-1.274-.533A1.738,1.738,0,0,1,33.206-21.824Zm2.8,5.2L33.676,0H30.532l2.331-16.621Zm11.255,0-.416,2.782h-3.36L40.812,6.992H37.741l2.674-20.831H37.741l.416-2.782h2.62a10.794,10.794,0,0,1,2.394-6.612,7.155,7.155,0,0,1,5.61-2.331,12.108,12.108,0,0,1,4.029.777l-.452,3.107A6.827,6.827,0,0,0,49.1-22.6q-4.661,0-5.221,5.98Zm15.627,0L60.522,0H57.415L57.7-2.818Q54.832.253,52.23.253a3.813,3.813,0,0,1-2.845-1.2,4.717,4.717,0,0,1-1.165-3.424,9.316,9.316,0,0,1,.09-1.283l1.554-10.966h3.144L51.453-5.655a7.683,7.683,0,0,0-.072,1.012q0,2.493,1.843,2.493,1.933,0,5-3.667l1.518-10.8Zm7.985,0-.488,3.162.072.072a14.4,14.4,0,0,1,2.349-2.8,3.218,3.218,0,0,1,2.06-.687,3.663,3.663,0,0,1,1.373.253v3.559a3.929,3.929,0,0,0-1.933-.56,2.992,2.992,0,0,0-1.644.461,7.239,7.239,0,0,0-1.752,1.969,7.455,7.455,0,0,0-1.066,1.834L68.544,0H65.4l2.331-16.621ZM89.609-4.336l-.452,3A9.155,9.155,0,0,1,83.611.524a6.358,6.358,0,0,1-5.05-2.2,8.6,8.6,0,0,1-1.906-5.844,10.4,10.4,0,0,1,2.285-6.838,6.993,6.993,0,0,1,5.592-2.773,5.335,5.335,0,0,1,4.209,1.942,7.388,7.388,0,0,1,1.68,5.013,11.494,11.494,0,0,1-.108,1.554H79.944a9.285,9.285,0,0,0-.145,1.59,5.058,5.058,0,0,0,1.256,3.622,4.157,4.157,0,0,0,3.153,1.328Q86.52-2.078,89.609-4.336ZM80.432-10.8h6.956a4.326,4.326,0,0,0-.786-2.737,2.65,2.65,0,0,0-2.213-1Q81.678-14.543,80.432-10.8ZM102-16.621l-.343,2.457H98.335l-1.59,9.087a6.571,6.571,0,0,0-.126,1.156q0,1.626,1.752,1.626a6.324,6.324,0,0,0,3.035-.994l-.181,3.071a8.73,8.73,0,0,1-3.451.741A4.718,4.718,0,0,1,94.551-.515a3.465,3.465,0,0,1-1.183-2.737,4.157,4.157,0,0,1,.09-.849l1.734-10.063H92.265l.379-2.457h3.017l.632-3.4H99.4l-.578,3.4Zm16.332,0L116,0h-3.144l.307-1.915-.072-.09a6.235,6.235,0,0,1-4.48,2.331A4.873,4.873,0,0,1,104.74-1.6a7.041,7.041,0,0,1-1.6-4.652,10.764,10.764,0,0,1,2.972-7.8q2.972-3.071,8.3-3.071A14.123,14.123,0,0,1,118.335-16.621ZM113.529-4.806,114.9-14.4q-.506-.036-.976-.036a6.867,6.867,0,0,0-5.637,2.358,8.1,8.1,0,0,0-1.933,5.266,5.421,5.421,0,0,0,.93,3.279,2.814,2.814,0,0,0,2.358,1.274,4.05,4.05,0,0,0,2.493-1.129Q113.493-4.517,113.529-4.806Z" transform="translate(-1.301 25.564)"/>
</svg>
